<?xml version="1.0" encoding="utf-8"?>
<!-- Generator: Adobe Illustrator 17.1.0, SVG Export Plug-In . SVG Version: 6.00 Build 0)  -->
<!DOCTYPE svg PUBLIC "-//W3C//DTD SVG 1.1//EN" "http://www.w3.org/Graphics/SVG/1.1/DTD/svg11.dtd">
<svg version="1.1" id="Layer_1" xmlns="http://www.w3.org/2000/svg" xmlns:xlink="http://www.w3.org/1999/xlink" x="0px" y="0px"
	 viewBox="0 0 640 289.4" enable-background="new 0 0 640 289.4" xml:space="preserve">
<polygon fill="#FFFFFF" stroke="#F2F2F2" stroke-miterlimit="10" points="347.5,217 222.2,289.4 96.9,217 96.9,72.3 222.2,0 
	347.5,72.3 "/>
<g>
	<g>
		<polygon fill-rule="evenodd" clip-rule="evenodd" fill="#3FA9F5" points="274.4,144.3 274.4,197.1 228.7,223.5 183,197.1 
			183,144.3 205.9,157.5 205.9,183.9 228.7,197.1 251.6,183.9 251.6,157.5 		"/>
		<polygon fill-rule="evenodd" clip-rule="evenodd" fill="#A6DB81" points="251.6,183.9 228.7,170.7 228.7,144.3 251.6,157.5 		"/>
		<polygon fill-rule="evenodd" clip-rule="evenodd" fill="#7AC943" points="205.9,183.9 228.7,170.7 228.7,144.3 205.9,157.5 		"/>
		<polygon fill-rule="evenodd" clip-rule="evenodd" fill="#63B9F7" points="228.7,117.9 251.6,131.1 251.6,91.5 274.4,104.7 
			274.4,144.3 251.6,157.5 228.7,144.3 205.9,157.5 183,144.3 		"/>
	</g>
	<g>
		<polygon fill-rule="evenodd" clip-rule="evenodd" fill="#3FA9F5" points="365.8,170.7 365.8,144.3 320.1,117.9 274.4,144.3 
			274.4,197.1 320.1,223.5 342.9,210.3 297.2,183.9 297.2,157.5 320.1,144.3 342.9,157.5 342.9,183.9 		"/>
		<polygon fill-rule="evenodd" clip-rule="evenodd" fill="#7AC943" points="342.9,157.5 320.1,170.7 320.1,197.1 342.9,183.9 		"/>
		<polygon fill-rule="evenodd" clip-rule="evenodd" fill="#A6DB81" points="297.2,157.5 320.1,170.7 320.1,197.1 297.2,183.9 		"/>
		<polygon fill-rule="evenodd" clip-rule="evenodd" fill="#63B9F7" points="320.1,117.9 365.8,144.3 342.9,157.5 320.1,144.3 
			297.2,157.5 274.4,144.3 		"/>
	</g>
	<g>
		<polygon fill-rule="evenodd" clip-rule="evenodd" fill="#3FA9F5" points="0.2,144.3 0.2,210.3 23.1,223.5 23.1,157.5 		"/>
		<polygon fill-rule="evenodd" clip-rule="evenodd" fill="#3FA9F5" points="91.6,144.3 91.6,210.3 68.8,223.5 68.8,157.5 		"/>
		<polygon fill-rule="evenodd" clip-rule="evenodd" fill="#63B9F7" points="45.9,117.9 91.6,144.3 68.8,157.5 45.9,144.3 
			23.1,157.5 0.2,144.3 0.2,117.9 23.1,131.1 		"/>
		<polygon fill-rule="evenodd" clip-rule="evenodd" fill="#7AC943" points="23.1,157.5 45.9,170.7 45.9,197.1 23.1,183.9 		"/>
		<polygon fill-rule="evenodd" clip-rule="evenodd" fill="#A6DB81" points="68.8,157.5 45.9,170.7 45.9,197.1 68.8,183.9 		"/>
	</g>
	<g>
		<polygon fill-rule="evenodd" clip-rule="evenodd" fill="#3FA9F5" points="183,144.3 183,197.1 137.3,223.5 91.6,197.1 91.6,144.3 
			114.5,157.5 114.5,183.9 137.3,197.1 160.2,183.9 160.2,157.5 		"/>
		<polygon fill-rule="evenodd" clip-rule="evenodd" fill="#A6DB81" points="160.2,157.5 137.3,170.7 137.3,197.1 160.2,183.9 		"/>
		<polygon fill-rule="evenodd" clip-rule="evenodd" fill="#7AC943" points="114.5,157.5 137.3,170.7 137.3,197.1 114.5,183.9 		"/>
		<polygon fill-rule="evenodd" clip-rule="evenodd" fill="#63B9F7" points="137.3,117.9 183,144.3 160.2,157.5 137.3,144.3 
			114.5,157.5 91.6,144.3 		"/>
	</g>
	<g>
		<polygon fill-rule="evenodd" clip-rule="evenodd" fill="#3FA9F5" points="457.2,144.6 457.2,197.4 411.5,223.7 365.8,197.4 
			365.8,144.6 388.6,157.8 388.6,184.2 411.5,197.4 434.3,184.2 434.3,157.8 		"/>
		<polygon fill-rule="evenodd" clip-rule="evenodd" fill="#A6DB81" points="434.3,184.2 411.5,171 411.5,144.6 434.3,157.8 		"/>
		<polygon fill-rule="evenodd" clip-rule="evenodd" fill="#7AC943" points="388.6,184.2 411.5,171 411.5,144.6 388.6,157.8 		"/>
		<polygon fill-rule="evenodd" clip-rule="evenodd" fill="#63B9F7" points="411.5,118.2 434.3,131.4 434.3,91.8 457.2,105 
			457.2,144.6 434.3,157.8 411.5,144.6 388.6,157.8 365.8,144.6 		"/>
	</g>
	<g>
		<polygon fill-rule="evenodd" clip-rule="evenodd" fill="#3FA9F5" points="640,131.4 640,197.3 594.3,223.7 548.6,197.3 
			548.6,131.4 571.5,144.6 571.5,184.1 594.3,197.3 617.2,184.1 617.2,144.6 		"/>
		<polygon fill-rule="evenodd" clip-rule="evenodd" fill="#7AC943" points="617.2,184.1 594.3,170.9 594.3,144.5 617.2,157.7 		"/>
		<polygon fill-rule="evenodd" clip-rule="evenodd" fill="#A6DB81" points="571.5,184.1 594.3,170.9 594.3,144.5 571.5,157.7 		"/>
		<path fill-rule="evenodd" clip-rule="evenodd" fill="#63B9F7" d="M640,197.3v26.4l-45.7,26.4l-22.8-13.2
			C594.3,223.7,617.2,210.5,640,197.3z"/>
		<path fill-rule="evenodd" clip-rule="evenodd" fill="#7AC943" d="M571.5,118.2c0,13.2,0,13.2,0,26.4l-22.9-13.2L571.5,118.2z"/>
		<path fill-rule="evenodd" clip-rule="evenodd" fill="#7AC943" d="M617.1,118.2c0,13.2,0,13.2,0,26.4l22.9-13.2L617.1,118.2z"/>
	</g>
	<g>
		<polygon fill-rule="evenodd" clip-rule="evenodd" fill="#63B9F7" points="480,131.4 502.9,118.2 548.6,144.5 525.7,157.7 		"/>
		<polygon fill-rule="evenodd" clip-rule="evenodd" fill="#3FA9F5" points="457.2,170.9 457.2,197.3 502.9,223.7 548.6,197.3 
			548.6,144.5 525.7,157.7 525.7,184.1 502.9,197.3 480,184.1 480,157.7 		"/>
		<polygon fill-rule="evenodd" clip-rule="evenodd" fill="#7AC943" points="480,184.1 502.9,170.9 502.9,144.5 480,157.7 		"/>
		<polygon fill-rule="evenodd" clip-rule="evenodd" fill="#A6DB81" points="502.9,170.9 502.9,144.5 525.7,157.7 525.7,184.1 		"/>
	</g>
</g>
<g>
	<path fill="#4E84C4" d="M140.3,62c-1.4,0-2.3,0.5-2.3,2.1v28.8c-2.7,2.4-7,4.3-10.5,4.3c-5.4,0-6.7-3.4-6.7-8.4V64.1
		c0-1.6-0.8-2.1-2.3-2.1h-6.3c-1.4,0-2.3,0.5-2.3,2.1v26.6c0,9.5,4,15.8,13.5,16.1h1.4c5-0.1,9.7-1.9,13.6-5.1l0.1,2.3
		c0.1,1.2,1,1.8,2.2,1.8h5.8c1.8,0,2.3-0.6,2.3-2.5V64.1c0-1.6-0.8-2.1-2.3-2.1H140.3"/>
	<path fill="#4E84C4" d="M1.6,62c-1,0-1.5,0.6-1.6,1.6v40.2c0.1,1.4,0.8,2,2.3,2h6.4c1.5,0,2.3-0.6,2.3-2.3V63.8
		c0-1.2-0.6-1.8-1.7-1.8H1.6"/>
	<path fill="#4E84C4" d="M161.9,62c-1.1,0-1.6,0.7-1.6,1.8v39.7c0,1.6,0.7,2.3,2.3,2.3h6.4c1.5,0,2.3-0.6,2.3-2.3V63.8
		c0-1.2-0.6-1.8-1.7-1.8H161.9"/>
	<path fill="#4E84C4" d="M32.6,66.2l-0.1-2.4c-0.1-1.3-0.9-1.7-2.2-1.7h-5.9c-1.6,0-2.3,0.8-2.3,2.3v39.3c0,1.4,0.8,2.2,2.2,2.2H31
		c1.5,0,2.2-0.7,2.2-2.3V74.8c2.8-2.4,7.1-4.3,10.6-4.3c5.5,0,6.8,3.5,6.8,8.5v24.5c0,1.5,0.5,2.3,2.2,2.3h6.5
		c1.6,0,2.2-0.8,2.2-2.3V77.1c0-9.8-4.1-16.1-14.2-16.1C41.9,61,36.7,62.8,32.6,66.2"/>
	<path fill="#4E84C4" d="M78.1,49.8c0,3.7,3,6.6,6.6,6.6c3.7,0,6.6-3,6.6-6.6c0-3.6-3-6.6-6.6-6.6C81.1,43.1,78.1,46.1,78.1,49.8"/>
	<path fill="#4E84C4" d="M68.7,62c-1.1,0-1.7,0.4-1.7,1.5v6.3c0,1.1,0.7,1.7,1.8,1.7h10.4l0,31.9c0,1.6,0.7,2.3,2.3,2.3h6.3
		c1.6,0,2.3-0.6,2.3-2.3V71.6h10.4c1.1,0,1.8-0.6,1.8-1.7v-6.3c0-1.2-0.6-1.5-1.7-1.5H68.7"/>
	<path fill="#4E84C4" d="M190,49.8c0,3.7,3,6.6,6.6,6.6c3.7,0,6.6-3,6.6-6.6c0-3.6-3-6.6-6.6-6.6C192.9,43.1,190,46.1,190,49.8"/>
	<path fill="#4E84C4" d="M180.6,62c-1.1,0-1.7,0.4-1.7,1.5v6.3c0,1.1,0.7,1.7,1.8,1.7h10.4v31.9c0,1.6,0.7,2.3,2.3,2.3h6.3
		c1.6,0,2.3-0.6,2.3-2.3V71.6h10.4c1.1,0,1.8-0.6,1.8-1.7v-6.3c0-1.2-0.6-1.5-1.7-1.5H180.6"/>
	<path fill="#4E84C4" d="M214.9,101.5h0.8c0.4,0,0.8,0.1,0.8,0.6c0,0.6-0.5,0.6-1,0.6h-0.6V101.5 M214.3,101.1v3.8h0.6v-1.6h0.6
		l1,1.6h0.6l-1.1-1.7c0.6-0.1,1-0.3,1-1c0-0.7-0.4-1.1-1.3-1.1H214.3 M212.9,102.9c0-1.5,1.2-2.7,2.7-2.7c1.5,0,2.6,1.2,2.6,2.7
		c0,1.6-1.2,2.8-2.6,2.8C214.1,105.7,212.9,104.5,212.9,102.9 M212.3,102.9c0,1.8,1.5,3.2,3.2,3.2c1.6,0,3-1.2,3.2-2.9v-0.7
		c-0.2-1.6-1.6-2.9-3.2-2.9C213.8,99.7,212.3,101.1,212.3,102.9"/>
</g>
<g>
	<g id="g2995_1_" transform="translate(165.274,21.91)">
		<path id="path2997_1_" fill="#3FA9F5" d="M391.6,225.7c-0.2,0.1-0.5,0.3-0.7,0.4c-0.3,0.1-0.7,0.2-1,0.2c-0.5,0-0.8-0.1-1.1-0.2
			c-0.2-0.1-0.4-0.4-0.4-0.7c0-0.4,0.1-0.7,0.3-0.9c0.2-0.2,0.5-0.4,0.8-0.5c0.3-0.1,0.8-0.2,1.2-0.3c0.4-0.1,1.3-0.2,1.4-0.2
			c0.1,0,0.2-0.1,0.1,0.2c0,0.1-0.3,1.1-0.4,1.6C391.9,225.5,391.7,225.7,391.6,225.7z M395,218.6c-0.7-0.4-1.8-0.6-3.4-0.6
			c-0.8,0-1.5,0.1-2.3,0.2c-0.6,0.1-0.6,0.1-1,0.2c-0.7,0.2-0.8,0.9-0.8,0.9l-0.2,0.9c-0.1,0.6,0.2,0.6,0.4,0.5
			c0.3-0.1,0.5-0.2,1.1-0.3c0.6-0.1,1.3-0.2,1.8-0.2c0.8,0,1.3,0.1,1.7,0.2c0.4,0.2,0.6,0.5,0.6,0.9c0,0.1,0,0.2,0,0.3
			c0,0.1-0.1,0.1-0.3,0.2c-1.1,0.1-1.9,0.2-2.8,0.3c-0.9,0.1-1.7,0.4-2.4,0.7c-0.7,0.3-1.3,0.7-1.6,1.3c-0.4,0.5-0.5,1.2-0.5,2
			c0,0.7,0.3,1.3,0.8,1.8c0.5,0.5,1.2,0.7,2,0.7c0.5,0,0.9,0,1.2-0.1c0.3-0.1,0.6-0.2,0.9-0.3c0.2-0.1,0.5-0.2,0.8-0.4
			c0.3-0.2,0.5-0.3,0.7-0.5l0,0l-0.1,0.3c0,0,0,0,0,0l0,0c-0.1,0.4,0.1,0.7,0.5,0.7l0,0h0l0,0c0.2,0,1.1,0,1.5,0h0.3c0,0,0,0,0,0
			c0.4,0,0.7-0.3,0.8-0.7l1.4-5.9c0-0.1,0.1-0.3,0.1-0.5c0-0.2,0-0.3,0-0.5C396,219.6,395.7,219,395,218.6"/>
	</g>
	<g id="g3001_1_">
		<g id="g3007_1_" transform="translate(101.082,45.728)">
			<path id="path3009_1_" fill="#3FA9F5" d="M435.5,194.3c-0.4,0-0.9,0.3-1.2,0.7c0,0-2.7,4.6-3,5.1c-0.1,0.2-0.3,0.1-0.3,0
				c0-0.1-0.8-5.1-0.8-5.1c-0.1-0.4-0.5-0.7-1-0.7l-1.7,0c-0.4,0-0.7,0.3-0.6,0.7c0,0,1.3,7.3,1.5,9c0.1,0.9,0,1.1,0,1.1l-1.7,2.9
				c-0.2,0.4-0.1,0.7,0.3,0.7l2,0c0.4,0,0.9-0.3,1.2-0.7l7.5-12.7c0,0,0.7-1.1,0.1-1.1C437.3,194.3,435.5,194.3,435.5,194.3"/>
		</g>
		<g id="g3011_1_" transform="translate(39.137,49.474)">
			<path id="path3013_1_" fill="#3FA9F5" d="M477.8,189.4c-0.2-0.5-0.6-0.8-1-1.1c-0.5-0.3-1-0.5-1.6-0.6c-0.6-0.1-1.4-0.2-2.2-0.2
				l-3.9,0c-0.4,0-0.8,0.3-0.9,0.7l-2.7,11.5c-0.1,0.4,0.2,0.7,0.6,0.7h1.9c0.4,0,0.8-0.3,0.9-0.7l0.6-2.8c0.1-0.4,0.5-0.7,0.9-0.7
				h0.5c2.3,0,4.1-0.5,5.4-1.4c1.3-0.9,1.9-2.2,1.9-3.7C478.1,190.4,478,189.9,477.8,189.4 M473.7,193.2c-0.6,0.4-1.4,0.6-2.4,0.6
				h-0.5c-0.4,0-0.7-0.3-0.6-0.7l0.6-2.4c0.1-0.4,0.5-0.7,0.9-0.7l0.6,0c0.7,0,1.3,0.1,1.6,0.4c0.4,0.2,0.5,0.6,0.5,1.1
				C474.6,192.2,474.3,192.8,473.7,193.2"/>
		</g>
	</g>
	<g id="g3015_1_" transform="translate(147.108,49.341)">
		<path id="path3017_1_" fill="#3FA9F5" d="M404,189.6c-0.2-0.5-0.6-0.8-1-1.1c-0.5-0.3-1-0.5-1.6-0.6c-0.6-0.1-1.4-0.2-2.2-0.2
			l-3.9,0c-0.4,0-0.8,0.3-0.9,0.7l-2.7,11.5c-0.1,0.4,0.2,0.7,0.6,0.7l1.9,0c0.4,0,0.8-0.3,0.9-0.7l0.6-2.8c0.1-0.4,0.5-0.7,0.9-0.7
			h0.5c2.3,0,4.1-0.5,5.4-1.4c1.3-0.9,1.9-2.2,1.9-3.7C404.4,190.6,404.3,190,404,189.6 M400,193.4c-0.6,0.4-1.4,0.6-2.4,0.6h-0.5
			c-0.4,0-0.7-0.3-0.6-0.7l0.6-2.5c0.1-0.4,0.5-0.7,0.9-0.7l0.6,0c0.7,0,1.3,0.1,1.6,0.4c0.4,0.2,0.5,0.6,0.5,1.1
			C400.8,192.3,400.5,192.9,400,193.4"/>
	</g>
	<g id="g3019_1_" transform="translate(57.28,21.938)">
		<path id="path3021_1_" fill="#3FA9F5" d="M465.4,225.7c-0.2,0.1-0.5,0.3-0.7,0.4c-0.3,0.1-0.7,0.2-1,0.2c-0.5,0-0.8-0.1-1.1-0.2
			c-0.2-0.1-0.4-0.4-0.4-0.7c0-0.4,0.1-0.7,0.3-0.9c0.2-0.2,0.5-0.4,0.8-0.5c0.3-0.1,0.8-0.2,1.2-0.3c0.4-0.1,1.3-0.2,1.4-0.2
			c0.1,0,0.2-0.1,0.1,0.2c0,0.1-0.3,1.1-0.4,1.6C465.6,225.4,465.5,225.6,465.4,225.7z M468.7,218.6c-0.7-0.4-1.8-0.6-3.4-0.6
			c-0.8,0-1.5,0.1-2.3,0.2c-0.6,0.1-0.6,0.1-1,0.2c-0.7,0.2-0.8,0.9-0.8,0.9l-0.2,0.9c-0.1,0.6,0.2,0.6,0.4,0.5
			c0.3-0.1,0.5-0.2,1.1-0.3c0.6-0.1,1.3-0.2,1.8-0.2c0.8,0,1.3,0.1,1.7,0.2c0.4,0.2,0.6,0.5,0.6,0.9c0,0.1,0,0.2,0,0.3
			c0,0.1-0.1,0.1-0.3,0.2c-1.1,0.1-1.8,0.2-2.8,0.3c-0.9,0.1-1.7,0.4-2.4,0.7c-0.7,0.3-1.3,0.7-1.6,1.3c-0.4,0.5-0.5,1.2-0.5,2
			c0,0.7,0.3,1.3,0.8,1.8c0.5,0.5,1.2,0.7,2,0.7c0.5,0,0.9,0,1.2-0.1c0.3-0.1,0.6-0.2,0.9-0.3c0.2-0.1,0.5-0.2,0.8-0.4
			c0.3-0.2,0.5-0.3,0.7-0.5l0,0l-0.1,0.3c0,0,0,0,0,0l0,0c-0.1,0.4,0.1,0.7,0.5,0.7l0,0h0l0,0c0.2,0,1.1,0,1.5,0h0.3c0,0,0,0,0,0
			c0.4,0,0.7-0.3,0.8-0.7l1.4-5.9c0-0.1,0.1-0.3,0.1-0.5c0-0.2,0-0.3,0-0.5C469.8,219.6,469.4,219,468.7,218.6"/>
	</g>
	<g id="g3023_1_" transform="translate(196.3,54.997)">
		<path id="path3025_1_" fill="#3FA9F5" d="M370.4,182.1h-1.7c0,0,0,0,0,0l0,0c-0.4,0-0.8,0.3-0.9,0.7c0,0,0,0,0,0
			c0,0,0,0.2-0.1,0.5l-2.3,10.5c-0.1,0.2-0.1,0.4-0.1,0.4l0,0c-0.1,0.4,0.1,0.7,0.5,0.7l0,0h1.8c0.4,0,0.8-0.3,0.9-0.7
			c0,0,0,0,0-0.1l2.5-11.4l0,0C371.1,182.5,370.8,182.1,370.4,182.1"/>
	</g>
	<g id="g3027_1_" transform="translate(206.375,47.652)">
		<path id="path3029_1_" fill="#3FA9F5" d="M363.6,191.8c-0.1,0-0.1,0-0.2,0c-0.1,0-0.1,0-0.2,0c-0.2,0-0.3-0.1-0.4-0.2
			c-0.1-0.1-0.1-0.3-0.1-0.5v-1h-0.2V190h0.2v-0.5h0.3v0.5h0.6v0.3h-0.6v0.8c0,0.1,0,0.2,0,0.2c0,0.1,0,0.1,0,0.2
			c0,0,0.1,0.1,0.1,0.1c0,0,0.1,0,0.2,0c0.1,0,0.1,0,0.2,0c0.1,0,0.1,0,0.1,0h0V191.8"/>
	</g>
	<g id="g3031_1_" transform="translate(216,47.601)">
		<path id="path3033_1_" fill="#3FA9F5" d="M357,191.9h-0.3v-1c0-0.1,0-0.2,0-0.2c0-0.1,0-0.1,0-0.2c0,0-0.1-0.1-0.1-0.1
			c0,0-0.1,0-0.2,0c-0.1,0-0.2,0-0.3,0.1c-0.1,0-0.2,0.1-0.3,0.2c0,0,0,0.1,0,0.1c0,0,0,0.1,0,0.1v1.2h-0.3v-1c0-0.1,0-0.2,0-0.2
			c0-0.1,0-0.1,0-0.2c0,0-0.1-0.1-0.1-0.1c0,0-0.1,0-0.2,0c-0.1,0-0.2,0-0.3,0.1c-0.1,0-0.2,0.1-0.3,0.2v1.4h-0.3V190h0.3v0.2
			c0.1-0.1,0.2-0.1,0.3-0.2c0.1,0,0.2-0.1,0.3-0.1c0.1,0,0.2,0,0.3,0.1c0.1,0.1,0.2,0.1,0.2,0.2c0.1-0.1,0.2-0.2,0.3-0.2
			c0.1,0,0.2-0.1,0.3-0.1c0.2,0,0.4,0.1,0.4,0.2c0.1,0.1,0.1,0.3,0.1,0.5V191.9"/>
	</g>
</g>
<text transform="matrix(1 0 0 1 387.1035 249.9727)" fill="#63B9F7" font-family="'HelveticaNeue'" font-size="17.5778">Engineered by</text>
</svg>
