<?xml version="1.0" encoding="utf-8"?>
<!-- Generator: Adobe Illustrator 17.1.0, SVG Export Plug-In . SVG Version: 6.00 Build 0)  -->
<!DOCTYPE svg PUBLIC "-//W3C//DTD SVG 1.1//EN" "http://www.w3.org/Graphics/SVG/1.1/DTD/svg11.dtd">
<svg version="1.1" id="Layer_1" xmlns="http://www.w3.org/2000/svg" xmlns:xlink="http://www.w3.org/1999/xlink" x="0px" y="0px"
	 viewBox="0 0 161.4 40" enable-background="new 0 0 161.4 40" xml:space="preserve">
<g>
	<polygon fill-rule="evenodd" clip-rule="evenodd" fill="#FFFFFF" points="69.2,13.3 69.2,26.6 57.7,33.3 46.1,26.6 46.1,13.3 
		51.9,16.6 51.9,23.3 57.7,26.6 63.4,23.3 63.4,16.6 	"/>
	<polygon fill-rule="evenodd" clip-rule="evenodd" fill="#FFFFFF" points="57.7,6.7 63.4,10 63.4,0 69.2,3.3 69.2,13.3 63.4,16.6 
		57.7,13.3 51.9,16.6 46.1,13.3 	"/>
	<polygon fill-rule="evenodd" clip-rule="evenodd" fill="#FFFFFF" points="92.2,20 92.2,13.3 80.7,6.7 69.2,13.3 69.2,26.6 
		80.7,33.3 86.5,30 74.9,23.3 74.9,16.6 80.7,13.3 86.5,16.6 86.5,23.3 	"/>
	<polygon fill-rule="evenodd" clip-rule="evenodd" fill="#FFFFFF" points="80.7,6.7 92.2,13.3 86.5,16.6 80.7,13.3 74.9,16.6 
		69.2,13.3 	"/>
	<polygon fill-rule="evenodd" clip-rule="evenodd" fill="#FFFFFF" points="0,13.3 0,30 5.8,33.3 5.8,16.6 	"/>
	<polygon fill-rule="evenodd" clip-rule="evenodd" fill="#FFFFFF" points="23.1,13.3 23.1,30 17.3,33.3 17.3,16.6 	"/>
	<polygon fill-rule="evenodd" clip-rule="evenodd" fill="#FFFFFF" points="11.5,6.7 23.1,13.3 17.3,16.6 11.5,13.3 5.8,16.6 0,13.3 
		0,6.7 5.8,10 	"/>
	<polygon fill-rule="evenodd" clip-rule="evenodd" fill="#FFFFFF" points="46.1,13.3 46.1,26.6 34.6,33.3 23.1,26.6 23.1,13.3 
		28.8,16.6 28.8,23.3 34.6,26.6 40.4,23.3 40.4,16.6 	"/>
	<polygon fill-rule="evenodd" clip-rule="evenodd" fill="#FFFFFF" points="34.6,6.7 46.1,13.3 40.4,16.6 34.6,13.3 28.8,16.6 
		23.1,13.3 	"/>
	<polygon fill-rule="evenodd" clip-rule="evenodd" fill="#FFFFFF" points="115.3,13.4 115.3,26.7 103.8,33.4 92.2,26.7 92.2,13.4 
		98,16.7 98,23.4 103.8,26.7 109.5,23.4 109.5,16.7 	"/>
	<polygon fill-rule="evenodd" clip-rule="evenodd" fill="#FFFFFF" points="103.8,6.7 109.5,10.1 109.5,0.1 115.3,3.4 115.3,13.4 
		109.5,16.7 103.8,13.4 98,16.7 92.2,13.4 	"/>
	<polygon fill-rule="evenodd" clip-rule="evenodd" fill="#FFFFFF" points="161.4,10.1 161.4,26.7 149.9,33.3 138.4,26.7 138.4,10.1 
		144.1,13.4 144.1,23.4 149.9,26.7 155.7,23.4 155.7,13.4 	"/>
	<path fill-rule="evenodd" clip-rule="evenodd" fill="#FFFFFF" d="M161.4,26.7v6.7L149.9,40l-5.8-3.3
		C149.9,33.3,155.7,30,161.4,26.7z"/>
	<path fill-rule="evenodd" clip-rule="evenodd" fill="#FFFFFF" d="M144.1,6.7c0,3.3,0,3.3,0,6.7l-5.8-3.3L144.1,6.7z"/>
	<path fill-rule="evenodd" clip-rule="evenodd" fill="#FFFFFF" d="M155.7,6.7c0,3.3,0,3.3,0,6.7l5.8-3.3L155.7,6.7z"/>
	<polygon fill-rule="evenodd" clip-rule="evenodd" fill="#FFFFFF" points="121.1,10 126.8,6.7 138.4,13.4 132.6,16.7 	"/>
	<polygon fill-rule="evenodd" clip-rule="evenodd" fill="#FFFFFF" points="115.3,20 115.3,26.7 126.8,33.3 138.4,26.7 138.4,13.4 
		132.6,16.7 132.6,23.4 126.8,26.7 121.1,23.4 121.1,16.7 	"/>
</g>
</svg>
